# xmcd
#
# Track frame offsets: 
#        182
#        17025
#        29215
#        41932
#        52910
#        64257
#        74715
#        97737
#        109202
#        130277
#        141817
#        156912
#        168842
#        181732
#
# Disc length: 2620 seconds
#
# Revision: 11
# Processed by: cddbd v1.5.2PL0 Copyright (c) Steve Scherf et al.
# Submitted via: ExactAudioCopy v1.3
#
DISCID=c80a3a0e
DTITLE=Johnny Cash - American Recordings 2 - Unchained
DYEAR=1996
DGENRE=Country
TTITLE0=Rowboat
TTITLE1=Sea Of Heartbreak
TTITLE2=Rusty Cage
TTITLE3=The One Rose
TTITLE4=Country Boy
TTITLE5=Memories Are Made Of This
TTITLE6=Spiritual
TTITLE7=Kneeling Drunkard's Plea
TTITLE8=Southern Accents
TTITLE9=Mean Eyed Cat
TTITLE10=Meet Me In Heaven
TTITLE11=I Never Picked Cotton
TTITLE12=Unchained
TTITLE13=I've Been Everywhere
EXTD=YEAR: 1996
EXTT0=
EXTT1=
EXTT2=
EXTT3=
EXTT4=
EXTT5=
EXTT6=
EXTT7=
EXTT8=
EXTT9=
EXTT10=
EXTT11=
EXTT12=
EXTT13=
PLAYORDER=
